#!OML:ASF F:\VICON\USERDATA\INSTALL\rory3\rory3.ASF
:FULLY-SPECIFIED
:DEGREES
97
root 0.0108579 17.4468 17.1593 6.47631 0.096776 -6.23465
lowerback 15.2404 2.01275 6.61562
upperback -1.15791 4.17744 2.8754
thorax -9.5947 1.73795 -1.58089
lowerneck -21.6825 -4.22629 -1.52497
upperneck 12.2854 -5.58343 1.90776
head 7.39127 -2.55114 0.181152
rclavicle -3.55825e-014 1.03368e-014
rhumerus -36.7387 7.25464 -94.9619
rradius 118.432
rwrist -15.6284
rhand -15.6407 40.7326
rfingers 7.12502
rthumb 10.5468 11.0173
lclavicle -3.55825e-014 1.03368e-014
lhumerus -62.7739 -14.0058 101.456
lradius 98.3317
lwrist 30.5928
lhand -23.8046 0.662217
lfingers 7.12502
lthumb 2.66603 30.6253
rfemur -1.76477 4.13882 36.2719
rtibia 42.0157
rfoot -12.9622 -9.68548
rtoes -20.5514
lfemur -44.379 7.0224 -12.2575
ltibia 90.7497
lfoot -3.97752 -6.56583
ltoes -8.23376
98
root 0.0290245 17.5734 17.7296 6.38066 0.400686 -6.07961
lowerback 15.0049 2.17456 6.71981
upperback -1.22535 4.38136 2.74099
thorax -9.50097 1.82911 -1.81805
lowerneck -21.5949 -4.22797 -1.47707
upperneck 12.5035 -5.59213 1.82171
head 7.44547 -2.56007 0.143206
rclavicle 9.83984e-015 -9.54166e-015
rhumerus -36.7004 7.39977 -95.0331
rradius 119.005
rwrist -15.2489
rhand -15.7423 40.4673
rfingers 7.12502
rthumb 10.4488 10.7469
lclavicle 9.83984e-015 -9.54166e-015
lhumerus -63.7774 -13.0672 100.87
lradius 99.1019
lwrist 30.7137
lhand -23.7662 2.21088
lfingers 7.12502
lthumb 2.70316 32.1735
rfemur 0.478836 3.80504 35.8262
rtibia 40.4115
rfoot -9.30725 -7.67266
rtoes -18.3793
lfemur -44.8455 6.29736 -12.9451
ltibia 87.2475
lfoot -4.74809 -5.7271
ltoes -10.9249
99
root 0.0490145 17.7128 18.3141 6.15694 0.728821 -5.8782
lowerback 14.7622 2.31296 6.85238
upperback -1.12654 4.54425 2.59342
thorax -9.21727 1.90945 -2.06998
lowerneck -21.7381 -4.2689 -1.59347
upperneck 12.6596 -5.63631 1.94091
head 7.52878 -2.57175 0.190662
rclavicle 1.75924e-014 2.8625e-014
rhumerus -36.4791 7.57036 -94.987
rradius 119.372
rwrist -14.7701
rhand -15.9327 40.2618
rfingers 7.12502
rthumb 10.2651 10.5323
lclavicle 1.75924e-014 2.8625e-014
lhumerus -64.304 -12.1782 100.253
lradius 99.6187
lwrist 31.0393
lhand -23.7745 3.73521
lfingers 7.12502
lthumb 2.6951 33.6979
rfemur 2.95913 3.50893 35.3251
rtibia 38.448
rfoot -3.99388 -5.67017
rtoes -13.0261
lfemur -45.1141 5.48721 -13.6584
ltibia 83.1154
lfoot -4.44062 -5.26632
ltoes -10.8148
100
root 0.0754411 17.75 18.8781 5.80091 0.997552 -5.40676
lowerback 14.6166 2.41174 6.66031
upperback -1.14676 4.60889 2.37391
thorax -9.145 1.94703 -2.20504
lowerneck -21.4116 -4.26724 -1.66675
upperneck 12.6947 -5.65604 2.14682
head 7.49645 -2.56696 0.273231
rclavicle -4.79071e-014 -1.03368e-014
rhumerus -36.6697 7.93807 -95.1088
rradius 119.588
rwrist -14.3548
rhand -16.1301 40.7109
rfingers 7.12502
rthumb 10.0747 10.972
lclavicle -4.79071e-014 -1.03368e-014
lhumerus -65.3106 -11.1276 99.6229
lradius 100.232
lwrist 31.3238
lhand -22.6335 3.05831
lfingers 7.12502
lthumb 3.79704 33.0042
rfemur 5.34633 3.31038 34.5528
rtibia 36.5922
rfoot 2.19423 -4.15713
rtoes -9.07212
lfemur -44.062 4.65413 -14.3166
ltibia 79.6321
lfoot -5.92511 -4.20448
ltoes -12.5276
101
root 0.0875373 17.9019 19.5018 5.51786 1.275 -4.85093
lowerback 14.3976 2.55384 6.32806
upperback -1.24664 4.70598 2.14379
thorax -9.12542 2.00382 -2.27759
lowerneck -20.9818 -4.31642 -1.79876
upperneck 12.7087 -5.72941 2.35566
head 7.44284 -2.5921 0.361326
rclavicle 2.77305e-014 3.18055e-015
rhumerus -36.8995 8.30225 -95.1854
rradius 119.604
rwrist -13.9287
rhand -16.6116 40.7794
rfingers 7.12502
rthumb 9.61008 11.0186
lclavicle 2.77305e-014 3.18055e-015
lhumerus -66.569 -10.2608 99.0779
lradius 100.995
lwrist 31.4024
lhand -34.9515 20.2662
lfingers 7.12502
lthumb -8.09795 50.0911
rfemur 7.95458 3.18082 33.6689
rtibia 34.4006
rfoot 8.61259 -3.26787
rtoes -12.377
lfemur -43.9939 3.88507 -15.3938
ltibia 74.4246
lfoot -4.95998 -4.41264
ltoes -11.4469
102
root 0.11153 17.9914 20.1008 5.64242 1.84301 -4.32302
lowerback 13.838 2.61585 6.24092
upperback -1.52869 4.71488 1.8146
thorax -9.09014 2.00182 -2.55795
lowerneck -20.5677 -4.31774 -1.70663
upperneck 12.8128 -5.77415 2.38916
head 7.4086 -2.60885 0.358742
rclavicle 2.25621e-014 6.75868e-015
rhumerus -37.3826 8.44018 -95.325
rradius 119.568
rwrist -13.5876
rhand -16.9444 40.7236
rfingers 7.12502
rthumb 9.28896 10.9483
lclavicle 2.25621e-014 6.75868e-015
lhumerus -67.7684 -9.62511 98.4347
lradius 101.666
lwrist 31.6462
lhand -30.7214 11.6854
lfingers 7.12502
lthumb -4.01412 41.6273
rfemur 9.91522 2.78418 32.773
rtibia 32.6572
rfoot 13.9971 -2.88447
rtoes -9.14317
lfemur -43.7609 2.73385 -16.2904
ltibia 69.6538
lfoot -5.09078 -4.092
ltoes -14.0644
103
root 0.137905 18.0837 20.6897 5.79048 2.43167 -3.95358
lowerback 13.3361 2.63533 6.36313
upperback -1.75541 4.70636 1.51046
thorax -9.01458 1.98353 -2.92516
lowerneck -20.6642 -4.33793 -1.64965
upperneck 13.3509 -5.84688 2.45773
head 7.60556 -2.62593 0.355335
rclavicle 2.42517e-014 -2.5842e-014
rhumerus -37.8283 8.54175 -95.4858
rradius 119.476
rwrist -13.3539
rhand -16.6659 40.8086
rfingers 7.12502
rthumb 9.55775 11.0454
lclavicle 2.42517e-014 -2.5842e-014
lhumerus -68.7758 -8.98369 97.6551
lradius 102.566
lwrist 32.054
lhand -28.522 9.54824
lfingers 7.12502
lthumb -1.89004 39.5196
rfemur 11.8048 2.55254 32.1293
rtibia 30.8718
rfoot 18.674 -2.96256
rtoes -1.60722
lfemur -43.3831 1.49081 -16.7949
ltibia 64.5603
lfoot -4.49437 -4.22491
ltoes -13.3078
104
root 0.16118 18.1572 21.261 5.68793 2.79909 -3.81502
lowerback 13.2586 2.70066 6.66007
upperback -1.81798 4.81809 1.27605
thorax -8.98455 2.01566 -3.35929
lowerneck -21.1731 -4.47609 -1.78413
upperneck 14.0216 -6.05542 2.6934
head 7.93143 -2.69292 0.410655
rclavicle 2.99668e-014 2.14687e-014
rhumerus -37.941 8.73338 -95.6887
rradius 119.339
rwrist -13.3219
rhand -16.2218 40.1774
rfingers 7.12502
rthumb 9.98615 10.4343
lclavicle 2.99668e-014 2.14687e-014
lhumerus -69.4804 -8.57995 96.948
lradius 103.461
lwrist 32.2184
lhand -28.6343 9.69846
lfingers 7.12502
lthumb -1.99855 39.6689
rfemur 13.4599 3.01146 32.0802
rtibia 29.9566
rfoot 22.5067 -3.28921
rtoes 5.67098
lfemur -42.5953 0.424086 -16.9338
ltibia 59.5544
lfoot -4.04741 -4.39334
ltoes -14.5912
105
root 0.174676 18.2184 21.8241 5.65063 3.07404 -3.74587
lowerback 13.2982 2.79739 6.82918
upperback -2.01771 4.97496 1.10192
thorax -9.18222 2.06429 -3.67996
lowerneck -21.083 -4.61148 -1.91041
upperneck 14.2964 -6.24506 2.85359
head 8.02297 -2.7703 0.457695
rclavicle 5.58088e-014 -2.38542e-015
rhumerus -38.3033 9.1273 -95.9575
rradius 119.193
rwrist -13.5459
rhand -16.358 39.3172
rfingers 7.12502
rthumb 9.85478 9.56788
lclavicle 5.58088e-014 -2.38542e-015
lhumerus -70.2581 -8.17958 96.3035
lradius 104.41
lwrist 32.2809
lhand -28.8095 9.0312
lfingers 7.12502
lthumb -2.16775 38.9999
rfemur 14.737 3.9782 32.4502
rtibia 29.7494
rfoot 24.6408 -3.95556
rtoes 13.2827
lfemur -41.8667 -0.67452 -16.867
ltibia 54.6642
lfoot -3.63581 -4.60163
ltoes -16.1857
106
root 0.185311 18.2634 22.3886 5.80439 3.36775 -3.49286
lowerback 13.1822 2.89486 6.73338
upperback -2.32566 5.08028 0.905449
thorax -9.43284 2.0968 -3.86186
lowerneck -20.6069 -4.67494 -1.9211
upperneck 14.2964 -6.32648 2.80159
head 7.94324 -2.82121 0.440987
rclavicle 7.15625e-015 5.96354e-015
rhumerus -38.8501 9.52382 -96.2872
rradius 119.069
rwrist -13.815
rhand -16.2604 38.7258
rfingers 7.12502
rthumb 9.94893 8.98095
lclavicle 7.15625e-015 5.96354e-015
lhumerus -71.1108 -7.82159 95.6747
lradius 105.453
lwrist 32.1612
lhand -28.6972 8.61262
lfingers 7.12502
lthumb -2.05931 38.5824
rfemur 15.5632 5.0073 32.7634
rtibia 30.3712
rfoot 24.6762 -4.47258
rtoes 20.129
lfemur -41.4875 -1.87113 -16.9189
ltibia 49.7243
lfoot -2.94719 -5.28894
ltoes -16.7727
107
root 0.200819 18.2926 22.9395 5.92341 3.6818 -3.53948
lowerback 13.2168 2.92032 7.00591
upperback -2.56553 5.16858 0.805676
thorax -9.67801 2.10368 -4.15014
lowerneck -20.8687 -4.68744 -1.9707
upperneck 14.7442 -6.3215 2.6992
head 8.13565 -2.82287 0.405095
rclavicle -7.10655e-015 1.59028e-014
rhumerus -39.2889 10.0136 -96.6278
rradius 118.864
rwrist -13.9359
rhand -16.038 38.7915
rfingers 7.12502
rthumb 10.1635 9.05696
lclavicle -7.10655e-015 1.59028e-014
lhumerus -71.6296 -7.49879 95.0689
lradius 106.41
lwrist 31.9834
lhand -28.2565 8.25487
lfingers 7.12502
lthumb -1.63361 38.2284
rfemur 16.0798 5.74752 33.2947
rtibia 31.7086
rfoot 23.5599 -4.79388
rtoes 12.6233
lfemur -40.7592 -3.08498 -16.54
ltibia 45.1558
lfoot -2.68461 -6.007
ltoes -17.8337
108
root 0.216602 18.3153 23.4843 5.9888 3.65129 -3.6618
lowerback 13.3614 3.01353 7.17486
upperback -2.68714 5.34061 0.788763
thorax -9.86214 2.16336 -4.31179
lowerneck -21.5752 -4.65247 -2.1235
upperneck 15.3885 -6.23967 2.70377
head 8.47703 -2.77494 0.420514
rclavicle 6.30644e-014 1.19271e-015
rhumerus -39.5104 10.7837 -96.8801
rradius 118.594
rwrist -14.1335
rhand -15.9895 39.0489
rfingers 7.12502
rthumb 10.2103 9.31667
lclavicle 6.30644e-014 1.19271e-015
lhumerus -71.873 -7.15839 94.5849
lradius 107.323
lwrist 31.7106
lhand -28.2406 9.47094
lfingers 7.12502
lthumb -1.61827 39.4446
rfemur 16.3166 6.56377 33.7619
rtibia 33.703
rfoot 21.8303 -5.20761
rtoes 8.48536
lfemur -40.0236 -4.14843 -15.9707
ltibia 40.7387
lfoot -1.99322 -6.46154
ltoes -17.0655
109
root 0.229501 18.3178 24.0265 6.02945 3.57222 -4.00026
lowerback 13.4265 3.13826 7.4083
upperback -2.79076 5.56943 0.883067
thorax -9.97847 2.25365 -4.39355
lowerneck -21.5868 -4.6187 -2.24697
upperneck 15.3856 -6.15771 2.71606
head 8.48039 -2.74242 0.45531
rclavicle 1.37658e-014 7.95139e-016
rhumerus -39.8794 11.4773 -97.1657
rradius 118.337
rwrist -14.2164
rhand -15.8423 38.9557
rfingers 7.12502
rthumb 10.3523 9.2305
lclavicle 1.37658e-014 7.95139e-016
lhumerus -71.9574 -6.81076 94.2561
lradius 108.18
lwrist 31.4476
lhand -28.3205 9.25439
lfingers 7.12502
lthumb -1.69544 39.2274
rfemur 16.2256 7.42002 34.5085
rtibia 36.3366
rfoot 19.926 -6.11254
rtoes 9.96524
lfemur -39.4754 -5.09273 -15.1301
ltibia 36.924
lfoot -1.40335 -6.22969
ltoes -16.6473
110
root 0.238711 18.2972 24.5634 6.03596 3.60718 -4.4808
lowerback 13.4277 3.21584 7.78479
upperback -2.81516 5.75171 1.00349
thorax -9.96424 2.32254 -4.50802
lowerneck -21.2722 -4.67138 -2.45602
upperneck 14.8795 -6.19902 2.93936
head 8.27099 -2.76061 0.569136
rclavicle 3.27995e-014 1.78906e-014
rhumerus -40.2578 12.0211 -97.5406
rradius 118.049
rwrist -13.9806
rhand -15.6059 38.8202
rfingers 7.12502
rthumb 10.5803 9.10648
lclavicle 3.27995e-014 1.78906e-014
lhumerus -71.743 -6.63343 93.9016
lradius 108.969
lwrist 31.2791
lhand -27.4854 5.17605
lfingers 7.12502
lthumb -0.88886 35.1539
rfemur 15.8232 8.06249 35.4488
rtibia 39.5509
rfoot 18.3386 -7.52877
rtoes 12.8673
lfemur -38.9425 -5.75277 -14.3428
ltibia 33.6182
lfoot -1.13331 -5.37112
ltoes -18.4107
111
root 0.241249 18.2645 25.0953 5.99359 3.3565 -5.14465
lowerback 13.6007 3.39134 8.27916
upperback -2.8284 6.09903 1.09581
thorax -10.0005 2.45893 -4.76286
lowerneck -21.294 -4.74752 -2.59876
upperneck 14.6768 -6.32273 3.29721
head 8.22759 -2.79117 0.696357
rclavicle -1.25731e-014 3.97569e-016
rhumerus -40.6461 12.3791 -98.0576
rradius 117.683
rwrist -13.6869
rhand -15.5869 38.9159
rfingers 7.12502
rthumb 10.5987 9.20319
lclavicle -1.25731e-014 3.97569e-016
lhumerus -71.5133 -6.70846 93.554
lradius 109.817
lwrist 31.1281
lhand -27.0071 2.88169
lfingers 7.12502
lthumb -0.426953 32.861
rfemur 15.1977 8.78918 36.4981
rtibia 43.1794
rfoot 16.9772 -9.3227
rtoes 14.5218
lfemur -38.3721 -5.50644 -13.7367
ltibia 31.0288
lfoot -0.718931 -4.75202
ltoes -22.8577
